<!DOCTYPE svg PUBLIC "-//W3C//DTD SVG 1.1//EN" "http://www.w3.org/Graphics/SVG/1.1/DTD/svg11.dtd">
<!-- Uploaded to: SVG Repo, www.svgrepo.com, Transformed by: SVG Repo Mixer Tools -->
<svg fill="#000000" width="800px" height="800px" viewBox="-2.4 -2.4 28.80 28.80" id="paragraph" data-name="Flat Color" xmlns="http://www.w3.org/2000/svg" class="icon flat-color">
<g id="SVGRepo_bgCarrier" stroke-width="0">
<rect x="-2.4" y="-2.4" width="28.80" height="28.80" rx="0" fill="#ffffbb" strokewidth="0"/>
</g>
<g id="SVGRepo_tracerCarrier" stroke-linecap="round" stroke-linejoin="round"/>
<g id="SVGRepo_iconCarrier">
<path id="primary" d="M17,22a1,1,0,0,1-1-1V4H14V21a1,1,0,0,1-2,0V13H7.5a5.5,5.5,0,0,1,0-11H20a1,1,0,0,1,0,2H18V21A1,1,0,0,1,17,22ZM7.5,4a3.5,3.5,0,0,0,0,7H12V4Z" style="fill: #000000;"/>
</g>
</svg>