<!DOCTYPE svg PUBLIC "-//W3C//DTD SVG 1.1//EN" "http://www.w3.org/Graphics/SVG/1.1/DTD/svg11.dtd">
<!-- Uploaded to: SVG Repo, www.svgrepo.com, Transformed by: SVG Repo Mixer Tools -->
<svg fill="#000000" width="800px" height="800px" viewBox="0 0 1920 1920" xmlns="http://www.w3.org/2000/svg" transform="matrix(-1, 0, 0, 1, 0, 0)">
<g id="SVGRepo_bgCarrier" stroke-width="0"/>
<g id="SVGRepo_tracerCarrier" stroke-linecap="round" stroke-linejoin="round"/>
<g id="SVGRepo_iconCarrier"> <path fill-rule="evenodd" clip-rule="evenodd" d="M1251.45 447.883 1120 316.432h160c176.73 0 320 143.269 320 320h106.67c0-235.641-191.03-426.666-426.67-426.666h-159.97l134.34-134.341L1178.94 0 915.833 263.111l260.197 260.196 75.42-75.424Zm28.55 405.45C1280 735.513 1184.49 640 1066.67 640H213.333C95.513 640 0 735.513 0 853.333v853.337C0 1824.49 95.513 1920 213.333 1920h853.337c117.82 0 213.33-95.51 213.33-213.33V853.333Z"/> </g>
</svg>