<?xml version="1.0" encoding="utf-8"?><!-- Uploaded to: SVG Repo, www.svgrepo.com, Generator: SVG Repo Mixer Tools -->
<svg fill="#000000" width="800px" height="800px" viewBox="0 0 24 24" id="paper-clip" data-name="Flat Color" xmlns="http://www.w3.org/2000/svg" class="icon flat-color"><path id="primary" d="M17,20.56a5.06,5.06,0,0,1-3.58-1.47L6.63,12.35a3,3,0,0,1,0-4.28,3,3,0,0,1,4.29,0l7,7a1,1,0,0,1,0,1.42,1,1,0,0,1-1.41,0l-7-7a1,1,0,0,0-1.45,0,1,1,0,0,0-.3.73,1,1,0,0,0,.3.72l6.74,6.74a3.05,3.05,0,0,0,4.32-4.32L12.68,6.92a5.08,5.08,0,0,0-7.19,7.19l3.95,3.95A1,1,0,1,1,8,19.47l-4-3.95a7.08,7.08,0,0,1,10-10l6.43,6.43A5,5,0,0,1,17,20.56Z" style="fill: rgb(0, 0, 0);"></path></svg>